<?xml version="1.0" standalone="no"?>
<!DOCTYPE svg PUBLIC "-//W3C//DTD SVG 1.1//EN" "http://www.w3.org/Graphics/SVG/1.1/DTD/svg11.dtd"><svg t="1715567690926" class="icon" viewBox="0 0 1766 1024" version="1.1" xmlns="http://www.w3.org/2000/svg" p-id="2374" xmlns:xlink="http://www.w3.org/1999/xlink" width="344.921875" height="200"><path d="M1334.51687 8.585275a2843.195362 2843.195362 0 0 1-899.895653 0C246.910145-20.813913 63.23571 76.02087 22.171826 251.369739l-11.063652 51.177739c-41.138087 174.58458 108.959536 374.858203 338.810435 411.432812a3378.962551 3378.962551 0 0 0 695.073391 38.763594c135.954551 7.835826 183.444406 181.604174 283.039536 266.49971 122.642551 0 48.283826-266.084174 169.271652-324.986435 186.11571-64.549101 296.039884-237.768348 260.741566-391.709681l-11.063653-51.177739c-41.086145-175.34887-224.745739-272.183652-412.464231-242.784464z" fill="#94C95A" p-id="2375"></path><path d="M526.736696 300.306551c52.505971 6.225623 92.92429 47.319188 90.11942 93.755362-2.790029 46.376812-49.864348 80.361739-104.96742 73.831884-55.103072-6.485333-95.23942-50.769623-89.84487-96.834783 5.401971-46.124522 52.186899-76.926145 104.69287-70.752463zM1270.568812 296.841275c52.461449-6.656 99.461565 23.692986 105.182608 69.772986 5.721043 46.020638-34.111072 90.675942-89.162203 97.673275-55.05113 7.041855-102.362899-26.490435-105.47942-72.844985-3.123942-46.406493 37.012406-87.878493 89.459015-94.601276zM900.333449 321.313391c52.780522-0.24487 96.753159 35.676754 98.237218 82.187131 1.484058 46.458435-42.199188 86.00858-97.584232 86.26829-55.392464 0.311652-99.379942-38.785855-98.252058-85.259131 1.127884-46.525217 44.818551-82.892058 97.599072-83.19629z" fill="#FFFFFF" p-id="2376"></path></svg>