<?xml version="1.0" standalone="no"?><!DOCTYPE svg PUBLIC "-//W3C//DTD SVG 1.1//EN" "http://www.w3.org/Graphics/SVG/1.1/DTD/svg11.dtd"><svg t="1715569493869" class="icon" viewBox="0 0 1078 1024" version="1.1" xmlns="http://www.w3.org/2000/svg" p-id="1917" xmlns:xlink="http://www.w3.org/1999/xlink" width="210.546875" height="200"><path d="M936.506074 83.765178c-261.933933-37.724908-523.867866-37.729154-785.806046 0-34.29344 5.104733-68.115478 38.1411-73.959166 72.447281a2232.619744 2232.619744 0 0 0-7.1135 45.976568c-4.548393 30.819504 16.448111 54.219734 47.254875 56.835803-20.924307 208.087923-16.456604 416.175847 13.398861 624.259523 5.193917 35.002667 38.374678 68.043282 72.668118 72.468516 227.101141 28.360569 454.198035 28.360569 681.299176 0 34.297687-4.429481 67.478448-37.470096 72.668118-72.468516 29.855466-208.083677 34.323168-416.1716 13.398861-624.255276 30.806763-2.620316 51.794774-26.020546 47.250628-56.835803a2261.995314 2261.995314 0 0 0-7.1135-45.976568c-5.83944-34.310428-39.661478-67.346796-73.946425-72.451528z m-237.748033 410.497788c0.093431 37.232271-30.853479 67.903135-68.383031 68.043281a31949.340201 31949.340201 0 0 1-173.556659 0c-37.529552-0.140147-68.480709-30.81101-68.383031-68.043281l0.029728-9.037331c0.165628-37.223777 31.222956-68.081503 68.616609-68.340562 57.676682-0.335502 115.353365-0.335502 173.030047 0 37.393652 0.254812 68.450981 31.108291 68.612362 68.340562l0.033975 9.037331z" fill="#F08D66" p-id="1918"></path></svg>