<?xml version="1.0" standalone="no"?><!DOCTYPE svg PUBLIC "-//W3C//DTD SVG 1.1//EN" "http://www.w3.org/Graphics/SVG/1.1/DTD/svg11.dtd"><svg t="1715691271320" class="icon" viewBox="0 0 1024 1024" version="1.1" xmlns="http://www.w3.org/2000/svg" p-id="2769" xmlns:xlink="http://www.w3.org/1999/xlink" width="200" height="200"><path d="M393.344 645.973333c-109.909333-67.882667-251.861333-50.304-309.12-32.981333v327.253333h850.986667V891.306667c-274.773333 18.858667-404.48-160.426667-541.866667-245.333334z" fill="#E8D3FC" p-id="2770"></path><path d="M385.450667 216.064a51.498667 51.498667 0 1 1-102.997334 0 51.498667 51.498667 0 0 1 102.997334 0zM282.453333 444.501333a67.498667 67.498667 0 1 1-135.04 0 67.498667 67.498667 0 0 1 135.04 0zM554.752 682.752a42.752 42.752 0 1 0 0-85.504 42.752 42.752 0 0 0 0 85.504zM673.365333 396.16a128.597333 128.597333 0 1 1-257.152 0 128.597333 128.597333 0 0 1 257.152 0zM766.08 825.514667a92.757333 92.757333 0 1 0 0-185.514667 92.757333 92.757333 0 0 0 0 185.514667z" fill="#BF86F7" p-id="2771"></path></svg>