<?xml version="1.0" standalone="no"?><!DOCTYPE svg PUBLIC "-//W3C//DTD SVG 1.1//EN" "http://www.w3.org/Graphics/SVG/1.1/DTD/svg11.dtd"><svg t="1715567700813" class="icon" viewBox="0 0 1024 1024" version="1.1" xmlns="http://www.w3.org/2000/svg" p-id="2526" xmlns:xlink="http://www.w3.org/1999/xlink" width="200" height="200"><path d="M935.735216 753.141961c-38.676078-55.075137-113.357804-130.243765-113.347765-267.65553-1.480784-220.988235-96.341333-338.582588-245.775059-372.183843-0.165647-7.981176-0.326275-15.962353-0.501961-23.93851C574.895686 42.104471 545.044078 2.063059 510.037333 2.058039 475.035608 2.063059 445.18902 42.104471 443.969255 89.364078c-0.180706 8.563451-0.356392 17.131922-0.527059 25.695373-144.047686 37.536627-235.208784 152.877176-236.523921 370.416941-0.110431 137.527216-60.822588 225.14949-113.598746 268.769883-54.462745 61.44 70.821647 69.491451 70.495373 69.004549 233.763137 29.997176 467.541333 29.610667 701.304471-1.149491-0.281098 0.210824 102.179137-23.065098 70.615843-68.959372z" fill="#F8C51C" p-id="2527"></path><path d="M510.037333 1019.723294c75.334275 0.070275 142.883137-54.502902 177.970196-125.595608a2267.492392 2267.492392 0 0 1-355.935372 0c35.087059 71.092706 102.635922 125.665882 177.965176 125.595608z" fill="#F5A623" p-id="2528"></path></svg>