<?xml version="1.0" standalone="no"?><!DOCTYPE svg PUBLIC "-//W3C//DTD SVG 1.1//EN" "http://www.w3.org/Graphics/SVG/1.1/DTD/svg11.dtd"><svg t="1715567538683" class="icon" viewBox="0 0 1024 1024" version="1.1" xmlns="http://www.w3.org/2000/svg" p-id="1917" xmlns:xlink="http://www.w3.org/1999/xlink" width="200" height="200"><path d="M511.18601 0.545537c325.68556 2.566707 527.480572 202.318191 511.981957 510.407949-6.242374 307.723085-208.037386 510.121765-511.981957 512.57221C206.977614 1035.134007 6.886286 832.8024 0.863022 510.622586-14.854703 187.995611 185.232153-11.840835 511.18601 0.545537z" fill="#57C7ED" p-id="1918"></path><path d="M799.962865 717.43475c-24.571521-71.232817-98.281612-122.164504-195.52581-143.605895 59.27572-39.949403 100.530834-113.355424 101.921506-192.663976 2.311825-115.515214-84.763922-210.545962-194.390019-211.243534-109.617154 0.697572-196.697372 95.732792-194.390019 211.239063 1.399615 79.38457 42.721804 152.866608 102.095899 192.789181-97.05639 21.52188-170.609974 72.440153-195.163609 143.596951 0.116262-0.795947-16.070982 73.397078 81.973635 94.717736 48.88816 10.678215 147.786854 21.951155 233.843072 18.968588 86.150122-1.095546 159.457768-16.455541 159.225244-15.695367 0.339843 1.900436 108.71836-1.363842 100.410101-98.107218z" fill="#FFFFFF" p-id="1919"></path></svg>