<?xml version="1.0" standalone="no"?><!DOCTYPE svg PUBLIC "-//W3C//DTD SVG 1.1//EN" "http://www.w3.org/Graphics/SVG/1.1/DTD/svg11.dtd"><svg t="1715567651278" class="icon" viewBox="0 0 1024 1024" version="1.1" xmlns="http://www.w3.org/2000/svg" p-id="2069" xmlns:xlink="http://www.w3.org/1999/xlink" width="200" height="200"><path d="M1000.598905 856.150232c-9.102821 68.602611-75.835284 135.340463-144.448673 144.448673-229.435284 28.558821-458.870568 28.558821-688.305853 0-68.602611-9.102821-135.340463-75.840674-144.448674-144.448673-28.558821-229.435284-28.558821-458.870568 0-688.305853C32.498526 99.241768 99.241768 32.503916 167.844379 23.395705c229.435284-28.558821 458.870568-28.558821 688.305853 0 68.602611 9.102821 135.340463 75.851453 144.448673 144.448674 28.558821 229.435284 28.558821 458.870568 0 688.305853z" fill="#4080CF" p-id="2070"></path><path d="M531.924884 571.224926c0.113179-10.768168 0.194021-21.536337 0.247916-32.299115a4779.837979 4779.837979 0 0 1 30.051705-17.176253c41.094737-23.277137 82.049347-45.519495 122.297937-65.121011 7.318905-18.108632 10.611874-37.974232 9.097432-60.173473-5.502653-76.374232-66.888758-156.892968-140.023916-208.276211-38.971284-31.4368-30.795453 33.188379-30.973305 33.037474 2.7648 54.040253 4.753516 108.085895 5.976926 162.131537 0.404211 17.122358-13.074863 30.752337-29.852295 30.455915a3330.274358 3330.274358 0 0 0-127.935326 0c-16.777432 0.296421-30.251116-13.333558-29.846905-30.455915 1.223411-54.045642 3.212126-108.091284 5.976926-162.131537 2.915705-56.352337-29.572042-33.986021-29.755284-33.872842-73.690274 51.280842-135.706947 132.338526-141.247327 209.106189-6.127832 88.511326 67.772632 149.153684 166.949727 176.165727 0.937768 91.346189 4.004379 182.692379 9.199831 274.049347a796.564211 796.564211 0 0 0 168.814485-0.366484 5653.520168 5653.520168 0 0 0 9.582484-274.679916c0.490442-0.118568 0.959326-0.264084 1.438989-0.393432z" fill="#FFFFFF" p-id="2071"></path><path d="M751.486653 833.234189c-42.425937-27.308463-89.729347-60.254316-138.256169-90.381473a739.877726 739.877726 0 0 1 0-146.965558c48.526821-30.127158 95.830232-63.067621 138.256169-90.381474 42.425937 27.308463 89.723958 60.254316 138.250779 90.381474 4.877474 48.984926 4.877474 97.975242 0 146.960168-48.526821 30.132547-95.824842 63.0784-138.250779 90.386863z m-36.858611-142.697094c12.331116 7.157221 24.640674 14.362947 36.864 21.466273 12.223326-7.097937 24.527495-14.303663 36.853221-21.460884 0.091621-14.109642 0.091621-28.224674 0-42.339705-12.325726-7.151832-24.635284-14.357558-36.85861-21.466274-12.223326 7.108716-24.532884 14.314442-36.858611 21.466274a3260.189642 3260.189642 0 0 0 0 42.334316z" fill="#FFFFFF" p-id="2072"></path></svg>